<svg width="70" height="70" viewBox="0 0 70 70" fill="none" xmlns="http://www.w3.org/2000/svg">
<g clip-path="url(#clip0_1_156)">
<path d="M49.6772 19.1935H51.9353V21.4515H49.6772V19.1935Z" fill="#381DDB"/>
<path d="M4.51648 46.2903H6.77454V48.5484H4.51648V46.2903Z" fill="#381DDB"/>
<path d="M64.3548 19.1935H56.3375C55.8127 16.6206 53.5331 14.6773 50.8064 14.6773C48.0798 14.6773 45.8002 16.6206 45.2754 19.1935H41.3872C39.8794 19.1935 38.4615 19.7817 37.3959 20.8473L34.3958 23.8463C33.7646 24.4775 32.8919 24.8386 31.9999 24.8386H30.4839V19.1935H31.6129C32.8583 19.1935 33.871 18.1808 33.871 16.9354V5.64509C33.871 4.39973 32.8583 3.38702 31.6129 3.38702H6.77419C5.52884 3.38702 4.51613 4.39973 4.51613 5.64509V16.9354C4.51613 18.1808 5.52884 19.1935 6.77419 19.1935H7.90323V25.3172C5.91253 26.1915 4.51613 28.175 4.51613 30.4838V41.8882C1.94328 42.4131 0 44.6937 0 47.4193C0 50.1448 1.94328 52.4255 4.51613 52.9503V58.7096C4.51613 61.8222 7.04873 64.3548 10.1613 64.3548H20.3226C20.3226 65.6001 21.3353 66.6128 22.5806 66.6128H36.129C37.3744 66.6128 38.3871 65.6001 38.3871 64.3548H44.0323C47.1448 64.3548 49.6774 61.8222 49.6774 58.7096V54.1935C49.6774 52.3263 51.1973 50.8064 53.0645 50.8064H58.7097V48.5483H53.0645C49.952 48.5483 47.4194 51.0809 47.4194 54.1935V58.7096C47.4194 60.5768 45.8995 62.0967 44.0323 62.0967H38.3871C38.3871 60.8513 37.3744 59.8386 36.129 59.8386H35.8512L31.8792 45.938C31.56 44.8145 30.5214 44.0322 29.3548 44.0322C28.1883 44.0322 27.1497 44.8145 26.8305 45.938L22.8585 59.8386H22.5806C21.3353 59.8386 20.3226 60.8513 20.3226 62.0967H10.1613C8.29409 62.0967 6.77419 60.5768 6.77419 58.7096V52.9503C9.34704 52.4255 11.2903 50.1459 11.2903 47.4193C11.2903 44.6926 9.34704 42.4131 6.77419 41.8882V30.4838C6.77419 28.6166 8.29409 27.0967 10.1613 27.0967H14.6774V24.8386H10.1613V19.1935H28.2258V24.8386H16.9355V27.0967H31.9999C33.5077 27.0967 34.9256 26.5085 35.9912 25.4428L38.9913 22.4439C39.6225 21.8126 40.4952 21.4515 41.3872 21.4515H45.2754C45.8002 24.0244 48.0798 25.9677 50.8064 25.9677C53.5331 25.9677 55.8127 24.0244 56.3375 21.4515H64.3548C66.222 21.4515 67.7419 22.9714 67.7419 24.8386V45.1612C67.7419 47.0284 66.222 48.5483 64.3548 48.5483H60.9677V50.8064H64.3548C67.4674 50.8064 70 48.2738 70 45.1612V24.8386C70 21.7261 67.4674 19.1935 64.3548 19.1935ZM29.0015 46.5565C29.0919 46.2439 29.6189 46.2439 29.7093 46.5565L33.5027 59.8386H25.2059L29.0015 46.5565ZM22.5806 62.0967H36.129L36.1301 64.3548H22.5806V62.0967ZM9.03226 47.4193C9.03226 49.2865 7.51236 50.8064 5.64516 50.8064C3.77796 50.8064 2.25806 49.2865 2.25806 47.4193C2.25806 45.5521 3.77796 44.0322 5.64516 44.0322C7.51236 44.0322 9.03226 45.5521 9.03226 47.4193ZM27.0968 16.9354V12.4193H31.614L31.6151 16.9354H27.0968ZM18.0645 10.1612H13.5484V5.64509H18.0645V10.1612ZM20.3226 5.64509H24.8387V10.1612H20.3226V5.64509ZM18.0645 12.4193V16.9354H13.5484V12.4193H18.0645ZM20.3226 12.4193H24.8387V16.9354H20.3226V12.4193ZM31.614 10.1612H27.0968V5.64509H31.6129L31.614 10.1612ZM11.2903 5.64509V10.1612H6.77419V5.64509H11.2903ZM6.77419 12.4193H11.2903V16.9354H6.77419V12.4193ZM50.8064 23.7096C48.9392 23.7096 47.4194 22.1897 47.4194 20.3225C47.4194 18.4553 48.9392 16.9354 50.8064 16.9354C52.6737 16.9354 54.1936 18.4553 54.1936 20.3225C54.1936 22.1897 52.6737 23.7096 50.8064 23.7096Z" fill="#381DDB"/>
</g>
<defs>
<clipPath id="clip0_1_156">
<rect width="70" height="70" fill="#381DDB"/>
</clipPath>
</defs>
</svg>
