<svg width="70" height="70" viewBox="0 0 70 70" fill="none" xmlns="http://www.w3.org/2000/svg">
<g clip-path="url(#clip0_1_203)">
<path d="M57.9206 21.7981L69.5993 10.1194C70.1296 9.59414 70.1338 8.73835 69.6085 8.20781C69.3657 7.96265 69.0385 7.81953 68.6936 7.80804L68.7342 7.88915L62.3812 7.67288L62.1649 1.31991C62.1398 0.57378 61.5146 -0.0106586 60.7685 0.0145166C60.4236 0.026175 60.0962 0.169117 59.8535 0.41428L48.1884 12.0253C47.9252 12.2903 47.7833 12.6523 47.7964 13.0256V14.3773C33.9272 4.823 14.939 8.32101 5.38467 22.1901C-4.16961 36.0591 -0.671761 55.0475 13.1975 64.6018C27.0665 74.1561 46.0549 70.6581 55.6092 56.789C62.7852 46.3724 62.7852 32.6069 55.6092 22.1901H56.9609C57.3201 22.1921 57.6655 22.051 57.9206 21.7981ZM58.3261 39.5053C58.3464 54.8686 45.9083 67.3395 30.5449 67.3598C15.1816 67.3801 2.71068 54.9419 2.69041 39.5786C2.67013 24.2152 15.1083 11.7443 30.4716 11.7241C36.8328 11.7156 43.0047 13.8878 47.9586 17.8782L48.0262 20.1355L42.6194 25.5423C34.9281 18.8012 23.2284 19.5717 16.4873 27.263C9.74625 34.9543 10.5167 46.654 18.208 53.3951C25.8993 60.1362 37.5991 59.3657 44.3401 51.6744C50.3968 44.7639 50.4699 34.4574 44.5118 27.4617L49.9186 22.0549L52.1489 22.136C56.1242 27.0543 58.3031 33.1814 58.3261 39.5053ZM29.6432 40.4109C30.1703 40.935 31.0219 40.935 31.5491 40.4109L34.2525 37.7075C34.5159 38.2512 34.6544 38.847 34.658 39.4512C34.658 41.6908 32.8425 43.5063 30.6029 43.5063C28.3633 43.5063 26.5478 41.6908 26.5478 39.4512C26.5478 37.2116 28.3633 35.3961 30.6029 35.3961C31.2071 35.3997 31.8029 35.5382 32.3466 35.8016L29.6432 38.505C29.1191 39.0322 29.1191 39.8837 29.6432 40.4109ZM34.32 33.8146C31.2074 31.7547 27.0141 32.6079 24.9542 35.7205C22.8942 38.8331 23.7474 43.0264 26.86 45.0864C29.9727 47.1464 34.166 46.2931 36.2259 43.1805C37.7226 40.919 37.7226 37.9819 36.2259 35.7205L42.633 29.3135C48.2498 35.9827 47.3963 45.9425 40.7271 51.5593C34.0578 57.1761 24.098 56.3227 18.4812 49.6534C12.8644 42.9842 13.7179 33.0244 20.3871 27.4076C26.2639 22.4584 34.8502 22.4584 40.7271 27.4076L34.32 33.8146ZM50.7566 19.2974L50.5674 13.5392L59.6237 4.48288L59.7724 8.98402C59.7724 9.73049 60.3777 10.3357 61.1241 10.3357L65.6253 10.4844L56.5149 19.4867L50.7566 19.2974Z" fill="#381DDB"/>
</g>
<defs>
<clipPath id="clip0_1_203">
<rect width="70" height="70" fill="#381DDB"/>
</clipPath>
</defs>
</svg>
